<?xml version="1.0" standalone="no"?>
<!DOCTYPE svg PUBLIC "-//W3C//DTD SVG 20010904//EN"
 "http://www.w3.org/TR/2001/REC-SVG-20010904/DTD/svg10.dtd">
<svg version="1.0" xmlns="http://www.w3.org/2000/svg"
 width="1200.000000pt" height="1200.000000pt" viewBox="0 0 1200.000000 1200.000000"
 preserveAspectRatio="xMidYMid meet">
<metadata>
Created by potrace 1.14, written by Peter Selinger 2001-2017
</metadata>
<g transform="translate(0.000000,1200.000000) scale(0.100000,-0.100000)"
fill="#000000" stroke="none">
<path d="M6098 10755 c-2 -1 -77 -5 -168 -8 -91 -4 -174 -8 -185 -11 -11 -2
-45 -7 -76 -10 -31 -4 -65 -8 -75 -10 -11 -2 -41 -7 -69 -11 -27 -5 -52 -9
-55 -10 -3 -1 -27 -5 -55 -10 -27 -4 -60 -12 -73 -16 -13 -5 -37 -11 -55 -14
-18 -3 -86 -22 -152 -41 -369 -109 -755 -309 -1035 -538 -120 -97 -139 -115
-259 -236 -216 -217 -396 -466 -536 -742 -50 -97 -50 -97 -96 -107 -143 -31
-287 -135 -422 -306 -43 -55 -96 -129 -117 -165 -70 -117 -121 -315 -125 -485
-2 -55 -9 -104 -18 -126 -55 -125 -131 -394 -153 -539 -2 -19 -9 -57 -14 -85
-5 -27 -12 -70 -14 -95 -7 -58 -25 -260 -25 -280 -6 -167 -7 -175 -32 -215
-41 -64 -129 -253 -129 -277 0 -7 -7 -26 -16 -43 -8 -16 -17 -43 -19 -60 -12
-88 -15 -121 -25 -245 -6 -74 -13 -155 -16 -180 -3 -25 -6 -58 -5 -75 0 -16
-5 -70 -13 -120 -9 -63 -12 -161 -10 -325 6 -417 14 -823 19 -920 2 -52 6
-158 8 -235 7 -199 38 -413 88 -625 12 -47 22 -92 24 -100 16 -78 128 -556
140 -595 8 -27 24 -81 35 -120 21 -70 91 -259 128 -345 43 -102 136 -252 320
-517 100 -146 122 -167 282 -277 336 -233 527 -308 785 -310 96 0 248 9 310
19 180 30 320 70 433 122 81 37 110 38 149 1 28 -27 44 -16 33 22 -5 17 -6 30
-3 30 3 0 0 7 -7 16 -11 12 -11 17 1 28 8 7 46 43 86 80 l72 68 40 -31 c23
-18 45 -30 50 -27 12 8 -1 56 -27 99 -18 32 -18 32 9 87 16 30 28 63 29 74 0
16 5 18 39 12 22 -3 46 -9 55 -12 32 -12 17 38 -24 78 l-39 39 0 97 c-1 53 -3
108 -6 122 -36 184 -108 349 -218 505 -55 77 -132 173 -156 192 -19 16 -13 21
53 48 l54 22 74 -36 c71 -34 77 -36 188 -36 133 0 200 15 325 74 77 37 207
119 270 172 63 52 200 196 250 263 l54 71 65 -1 c55 -2 93 8 254 61 104 35
207 72 230 84 l42 21 20 -40 c29 -56 19 -107 -40 -205 -26 -44 -60 -105 -76
-135 -16 -30 -63 -107 -105 -170 -103 -155 -188 -299 -234 -394 -21 -44 -53
-106 -71 -138 -64 -113 -105 -235 -109 -323 -6 -112 25 -227 81 -310 l24 -36
-20 -29 c-19 -26 -27 -60 -15 -60 4 0 20 7 37 16 l32 16 35 -39 c46 -51 84
-77 153 -103 50 -18 55 -23 50 -45 -5 -29 0 -31 23 -8 16 15 22 15 88 0 40 -9
101 -21 135 -27 103 -18 113 -24 108 -65 -6 -46 7 -52 36 -16 l23 29 105 -24
c164 -38 250 -40 375 -10 6 1 69 21 140 45 212 70 288 115 556 333 183 150
282 268 494 590 24 37 63 107 86 155 23 48 89 171 147 273 58 102 131 240 163
308 61 128 64 131 126 123 7 -1 54 40 105 91 101 101 143 127 301 188 165 64
229 118 303 256 36 68 65 110 101 149 58 63 135 161 178 228 61 94 187 272
221 310 14 15 55 67 92 115 36 48 69 89 72 92 3 3 26 30 52 60 57 69 110 164
147 266 39 110 40 146 5 499 -9 87 -40 230 -70 321 -28 86 -119 273 -165 342
-16 24 -29 45 -29 47 0 2 -26 43 -57 91 -32 48 -65 99 -74 113 -8 14 -31 36
-50 49 l-34 23 -1 192 c-1 106 -4 226 -8 267 -11 126 -17 184 -21 205 -2 11
-7 43 -10 70 -7 55 -40 227 -57 290 -5 22 -11 47 -13 55 -9 47 -40 153 -71
247 -199 597 -533 1141 -973 1582 -151 151 -182 179 -376 340 -292 241 -754
500 -1135 636 -247 88 -555 166 -750 190 -25 3 -56 8 -70 10 -51 9 -148 16
-275 21 -71 3 -140 6 -152 8 -13 2 -24 2 -25 1z"/>
</g>
</svg>
